<?xml version="1.0" encoding="UTF-8" standalone="no"?>
<!-- Created with Inkscape (http://www.inkscape.org/) -->

<svg
   xmlns:dc="http://purl.org/dc/elements/1.1/"
   xmlns:cc="http://creativecommons.org/ns#"
   xmlns:rdf="http://www.w3.org/1999/02/22-rdf-syntax-ns#"
   xmlns:svg="http://www.w3.org/2000/svg"
   xmlns="http://www.w3.org/2000/svg"
   xmlns:sodipodi="http://sodipodi.sourceforge.net/DTD/sodipodi-0.dtd"
   xmlns:inkscape="http://www.inkscape.org/namespaces/inkscape"
   width="20"
   height="20"
   viewBox="0 0 5.2916664 5.2916666"
   version="1.1"
   id="svg2474"
   inkscape:version="0.92.3 (2405546, 2018-03-11)"
   sodipodi:docname="anticlinal recumbente.svg">
  <defs
     id="defs2468" />
  <sodipodi:namedview
     id="base"
     pagecolor="#ffffff"
     bordercolor="#666666"
     borderopacity="1.0"
     inkscape:pageopacity="0.0"
     inkscape:pageshadow="2"
     inkscape:zoom="22.627417"
     inkscape:cx="20.697068"
     inkscape:cy="9.6585601"
     inkscape:document-units="mm"
     inkscape:current-layer="layer1"
     showgrid="false"
     units="px"
     inkscape:window-width="683"
     inkscape:window-height="705"
     inkscape:window-x="592"
     inkscape:window-y="10"
     inkscape:window-maximized="0"
     width="17px" />
  <metadata
     id="metadata2471">
    <rdf:RDF>
      <cc:Work
         rdf:about="">
        <dc:format>image/svg+xml</dc:format>
        <dc:type
           rdf:resource="http://purl.org/dc/dcmitype/StillImage" />
        <dc:title></dc:title>
      </cc:Work>
    </rdf:RDF>
  </metadata>
  <g
     inkscape:label="Capa 1"
     inkscape:groupmode="layer"
     id="layer1"
     transform="translate(0,-291.70834)">
    <g
       id="g2560"
       transform="matrix(0,-2.1931866,1.8304777,0,-525.48027,309.58058)">
      <g
         transform="translate(-2.7450521,0.16536458)"
         id="g2545">
        <path
           inkscape:connector-curvature="0"
           d="m 10.093671,287.48564 c 0.363578,0 0.658416,0.39338 0.658416,0.87877 0,0.48538 -0.294838,0.87876 -0.658416,0.87876"
           style="fill:none;stroke:#ec008c;stroke-width:0.1236449;stroke-linecap:butt;stroke-linejoin:round;stroke-miterlimit:4;stroke-dasharray:none;stroke-opacity:1"
           id="path2202" />
        <path
           inkscape:connector-curvature="0"
           d="m 9.3040922,287.4839 1.812e-4,0.39065 -0.626276,-0.38346 0.626276,-0.39014 -1.812e-4,0.38295"
           style="fill:#ec008c;fill-opacity:1;fill-rule:nonzero;stroke:none;stroke-width:0.02146613"
           id="path2204" />
        <path
           inkscape:connector-curvature="0"
           d="m 9.3040922,287.4839 1.812e-4,0.39065 -0.626276,-0.38346 0.626276,-0.39014 z"
           style="fill:#000000;fill-opacity:1;stroke-width:0.60848874"
           id="path2206" />
        <path
           inkscape:connector-curvature="0"
           d="M 9.3035351,287.48564 H 10.093671"
           style="fill:none;stroke:#ec008c;stroke-width:0.1236449;stroke-linecap:butt;stroke-linejoin:round;stroke-miterlimit:4;stroke-dasharray:none;stroke-opacity:1"
           id="path2208" />
        <path
           inkscape:connector-curvature="0"
           d="m 9.3040922,289.24143 1.812e-4,0.39064 -0.626276,-0.3832 0.626276,-0.39015 -1.812e-4,0.38271"
           style="fill:#ec008c;fill-opacity:1;fill-rule:nonzero;stroke:none;stroke-width:0.02146613"
           id="path2210" />
        <path
           inkscape:connector-curvature="0"
           d="m 9.3040922,289.24143 1.812e-4,0.39064 -0.626276,-0.3832 0.626276,-0.39015 z"
           style="fill:#000000;fill-opacity:1"
           id="path2212" />
        <path
           inkscape:connector-curvature="0"
           d="M 9.3035351,289.24317 H 10.093671"
           style="fill:none;stroke:#ec008c;stroke-width:0.1236449;stroke-linecap:butt;stroke-linejoin:round;stroke-miterlimit:4;stroke-dasharray:none;stroke-opacity:1"
           id="path2214" />
        <path
           style="fill:#999999;fill-opacity:1"
           d="m 8.9592207,287.72476 c -0.1974646,-0.12114 -0.3585514,-0.22776 -0.3579706,-0.23695 5.821e-4,-0.009 0.162143,-0.11576 0.3590269,-0.23683 l 0.3579706,-0.22013 0.00995,0.19507 0.00995,0.19508 h 0.3659015 c 0.3436289,0 0.3659019,0.004 0.3659019,0.0668 0,0.0627 -0.02227,0.0668 -0.3659019,0.0668 H 9.338139 l -0.00995,0.19518 -0.00995,0.19519 z"
           id="path2506"
           inkscape:connector-curvature="0" />
        <path
           style="fill:#333333;fill-opacity:1"
           d="m 33.875007,19.610836 c -0.773437,-0.476771 -1.396365,-0.889609 -1.384284,-0.917417 0.01208,-0.02781 0.658956,-0.44902 1.4375,-0.936027 l 1.415534,-0.885466 0.01744,0.807341 0.01744,0.807342 h 1.373186 1.373186 v 0.1875 0.1875 h -1.375 -1.375 v 0.8125 c 0,0.446875 -0.02109,0.810494 -0.04687,0.808042 -0.02578,-0.0025 -0.679687,-0.394544 -1.453125,-0.871315 z"
           id="path2534"
           inkscape:connector-curvature="0"
           transform="matrix(0.26458333,0,0,0.26458333,0,284.3)" />
      </g>
      <path
         transform="matrix(0.26458333,0,0,0.26458333,0,284.3)"
         inkscape:connector-curvature="0"
         id="path2547"
         d="m 24.950468,21.14181 c -0.03652,-0.02178 -0.06641,-0.04228 -0.06641,-0.04556 0,-0.0033 0.01918,-0.0046 0.04261,-0.003 0.03895,0.0027 0.04365,-0.0031 0.05466,-0.06737 0.0066,-0.03867 0.01658,-0.399024 0.02213,-0.800781 l 0.01008,-0.730469 h 1.372761 1.372762 v -0.195313 -0.195312 h -1.375 -1.375 l 1.56e-4,-0.04297 c 0.0011,-0.297113 -0.03868,-1.560868 -0.04931,-1.567602 -0.0078,-0.005 0.0035,-0.01711 0.02528,-0.02701 l 0.03951,-0.018 v 0.812079 0.81208 l 1.371093,0.004 c 0.754102,0.0022 1.441407,-8.97e-4 1.527344,-0.0069 0.207748,-0.01444 0.39652,-0.0701 0.625,-0.184287 0.227533,-0.11371 0.359304,-0.210024 0.555318,-0.405893 0.490332,-0.489969 0.810851,-1.207462 0.907634,-2.03177 0.028,-0.23845 0.02384,-0.748104 -0.008,-0.984375 -0.109074,-0.808762 -0.422604,-1.495947 -0.898641,-1.969605 -0.396747,-0.394765 -0.759367,-0.562226 -1.296794,-0.598869 l -0.256127,-0.01746 0.05598,-0.02665 c 0.07954,-0.03787 0.107543,-0.140635 0.0726,-0.266467 -0.02006,-0.07223 -0.06041,-0.09991 -0.188736,-0.129431 -0.09595,-0.02208 -0.0887,-0.02262 0.205224,-0.01548 0.348018,0.0085 0.514026,0.03318 0.75,0.111702 1.397809,0.465126 2.266213,2.263648 1.99086,4.123202 -0.09861,0.665927 -0.350507,1.292011 -0.720794,1.791499 -0.147373,0.198793 -0.418339,0.472041 -0.606004,0.611107 -0.269267,0.199536 -0.642139,0.364078 -0.96875,0.427493 -0.126355,0.02453 -0.291631,0.0279 -1.628769,0.03312 l -1.488143,0.0058 -0.004,0.819039 -0.004,0.819039 z"
         style="fill:#333333;fill-opacity:1" />
    </g>
    <path
       style="fill:#999999;fill-opacity:1"
       d="M 3.3010206,17.617901 C 1.5758864,14.388071 1.0032025,13.245895 1.0736083,13.175489 1.1161457,13.132952 1.6987296,13.065993 2.368239,13.026692 l 1.21729,-0.07146 0.068208,-3 c 0.037514,-1.65 0.079702,-3.0140625 0.09375,-3.03125 0.014048,-0.017188 0.1380423,-0.03125 0.2755423,-0.03125 0.1375,0 0.261494,0.014062 0.2755422,0.03125 0.014048,0.017188 0.056236,1.38125 0.09375,3.03125 l 0.068208,3 1.21729,0.07146 c 0.6695094,0.0393 1.2484497,0.102616 1.286534,0.1407 0.092298,0.0923 -2.7393971,5.512201 -2.9095509,5.568919 -0.073024,0.02434 -0.4122262,-0.478943 -0.753782,-1.11841 z"
       id="path30"
       inkscape:connector-curvature="0"
       transform="matrix(0.26458333,0,0,0.26458333,0,291.70834)" />
    <path
       style="fill:#333333;fill-opacity:1"
       d="m 15.806535,18.252569 c -1.112525,-1.977519 -2.789067,-5.270982 -2.719008,-5.341322 0.04438,-0.04456 0.694898,-0.100051 1.445596,-0.123322 l 1.364906,-0.04231 V 9.7566755 c 0,-2.9056072 0.007,-2.9889405 0.25,-2.9889405 0.243055,0 0.25,0.083333 0.25,3 v 3 h 1.4375 c 0.950244,0 1.4375,0.04598 1.4375,0.135651 0,0.154315 -2.342114,4.797803 -2.79263,5.536683 l -0.295617,0.484834 z"
       id="path32"
       inkscape:connector-curvature="0"
       transform="matrix(0.26458333,0,0,0.26458333,0,291.70834)" />
    <path
       style="fill:#333333;fill-opacity:1;stroke-width:0.04419417"
       d="M 3.6437215,18.356872 C 3.102597,17.399877 0.86766548,13.104956 0.89879911,13.081889 c 0.006882,-0.0051 0.59919029,-0.04353 1.31624079,-0.0854 0.7170504,-0.04187 1.3175742,-0.08973 1.3344971,-0.106362 0.016923,-0.01663 0.037931,-1.283139 0.046684,-2.814467 0.018678,-3.2677196 0.011711,-3.2161308 0.4343339,-3.2161308 0.2208992,0 0.25588,0.033927 0.3394932,0.3292674 0.054957,0.1941209 0.070254,0.7158294 0.087559,2.9863004 0.015397,2.020143 0.034366,2.750726 0.071395,2.749729 0.027734,-7.47e-4 0.6301447,0.033 1.3386895,0.07499 l 1.2882633,0.07635 -0.3880965,0.75365 C 4.9340405,17.390934 4.281835,18.620403 4.0924035,18.873301 l -0.089277,0.119188 z"
       id="path34"
       inkscape:connector-curvature="0"
       transform="matrix(0.26458333,0,0,0.26458333,0,291.70834)" />
    <path
       style="fill:#333333;fill-opacity:1;stroke-width:0.04419417"
       d="M 15.74886,9.4348462 C 15.742022,7.4285147 15.720004,6.0767431 15.691272,5.8993123 15.509859,4.7790281 14.728419,3.5678605 13.705525,2.8215689 11.390027,1.1322085 7.9583967,1.3240857 5.9466964,3.2553985 4.9369432,4.2248019 4.5048609,5.1509299 4.4019043,6.5665157 L 4.3710566,6.9906512 4.2673289,6.8869235 c -0.05705,-0.05705 -0.1414388,-0.1037277 -0.1875301,-0.1037277 -0.070704,0 -0.3607636,0.082952 -0.3628224,0.1037604 -3.66e-4,0.0037 -0.030418,0.086275 -0.066782,0.1835017 C 3.5877151,7.2375092 3.5854833,7.2144111 3.6096283,6.6506132 3.6430515,5.8701636 3.7232374,5.4000388 3.9187191,4.8384345 4.1028137,4.3095441 4.2245465,4.0559378 4.5019859,3.6233123 5.1163925,2.6652365 5.9778824,1.9122853 7.0543019,1.3925612 9.2384195,0.33801101 11.876046,0.50520792 13.860205,1.8239816 c 1.278759,0.8499296 2.120428,2.0046527 2.520084,3.4574179 0.07401,0.2690188 0.12439,0.5891251 0.140729,0.8941264 l 0.02545,0.4750873 h -0.381602 -0.381602 l -0.01167,3.0162524 -0.01167,3.0162524 z"
       id="path36"
       inkscape:connector-curvature="0"
       transform="matrix(0.26458333,0,0,0.26458333,0,291.70834)" />
  </g>
</svg>
