<?xml version="1.0" encoding="UTF-8" standalone="no"?>
<!-- Created with Inkscape (http://www.inkscape.org/) -->

<svg
   xmlns:dc="http://purl.org/dc/elements/1.1/"
   xmlns:cc="http://creativecommons.org/ns#"
   xmlns:rdf="http://www.w3.org/1999/02/22-rdf-syntax-ns#"
   xmlns:svg="http://www.w3.org/2000/svg"
   xmlns="http://www.w3.org/2000/svg"
   xmlns:sodipodi="http://sodipodi.sourceforge.net/DTD/sodipodi-0.dtd"
   xmlns:inkscape="http://www.inkscape.org/namespaces/inkscape"
   width="32"
   height="32"
   viewBox="0 0 8.4666667 8.4666667"
   version="1.1"
   id="svg4879"
   inkscape:version="0.92.3 (2405546, 2018-03-11)"
   sodipodi:docname="fallainversa1.svg">
  <defs
     id="defs4873" />
  <sodipodi:namedview
     id="base"
     pagecolor="#ffffff"
     bordercolor="#666666"
     borderopacity="1.0"
     inkscape:pageopacity="0.0"
     inkscape:pageshadow="2"
     inkscape:zoom="5.6"
     inkscape:cx="7.4973961"
     inkscape:cy="6.6358734"
     inkscape:document-units="mm"
     inkscape:current-layer="layer1"
     showgrid="false"
     units="px"
     inkscape:window-width="1366"
     inkscape:window-height="705"
     inkscape:window-x="-8"
     inkscape:window-y="-8"
     inkscape:window-maximized="1"
     inkscape:snap-nodes="false" />
  <metadata
     id="metadata4876">
    <rdf:RDF>
      <cc:Work
         rdf:about="">
        <dc:format>image/svg+xml</dc:format>
        <dc:type
           rdf:resource="http://purl.org/dc/dcmitype/StillImage" />
        <dc:title></dc:title>
      </cc:Work>
    </rdf:RDF>
  </metadata>
  <g
     inkscape:label="Capa 1"
     inkscape:groupmode="layer"
     id="layer1"
     transform="translate(0,-288.53334)">
    <path
       style="fill:#000000;fill-opacity:1;stroke-width:0.01810326"
       d="m -0.00679133,292.43984 c -0.014794,-0.004 -0.0268981,-0.0779 -0.0268981,-0.16426 v -0.15694 l 0.59748592,-0.006 c 0.32861717,-0.004 2.24883351,-0.006 4.26714711,-0.006 h 3.6696612 l 0.017562,0.0204 c 0.019982,0.0234 0.093518,0.30178 0.080581,0.30507 -0.024378,0.006 -8.58278712,0.0138 -8.6055413,0.007 z"
       id="path223"
       inkscape:connector-curvature="0" />
    <path
       style="fill:#000000;fill-opacity:1;stroke-width:0.03367428"
       d="m 4.5352088,293.17661 c -0.1774399,-0.36484 -0.3320573,-0.6639 -0.3435945,-0.66456 -0.011537,-3.8e-4 -0.1639852,0.28278 -0.3387726,0.62988 -0.1747877,0.34712 -0.3237881,0.62528 -0.3311128,0.61813 -0.00732,-0.008 -0.1508201,-0.28739 -0.3188791,-0.6228 -0.1680589,-0.33539 -0.3166454,-0.61334 -0.3301921,-0.61768 -0.013547,-0.004 -0.1673484,0.27988 -0.3417815,0.63158 l -0.3171511,0.63943 -0.3299517,-0.65999 -0.3299514,-0.66 -0.3279223,0.66 -0.32792236,0.65999 -0.34046264,-0.68143 c -0.2597777,-0.51994 -0.32783942,-0.68302 -0.2871968,-0.68819 0.0292959,-0.004 1.8505734,-0.012 4.0472824,-0.0182 l 3.9940165,-0.0115 -0.3590406,0.72472 c -0.197472,0.39859 -0.3690039,0.71344 -0.3811817,0.69967 -0.012179,-0.0138 -0.1662287,-0.32143 -0.3423343,-0.68366 l -0.3201932,-0.65861 -0.3419524,0.68878 -0.3419522,0.68881 -0.3334169,-0.67575 c -0.1872885,-0.37958 -0.3458683,-0.66232 -0.3618264,-0.64513 -0.015625,0.0168 -0.1628833,0.30734 -0.3272403,0.64556 -0.1643569,0.33822 -0.3091409,0.62606 -0.3217417,0.63965 -0.012601,0.0136 -0.1680887,-0.27382 -0.3455283,-0.63867 z"
       id="path225"
       inkscape:connector-curvature="0" />
  </g>
</svg>
