<?xml version="1.0" encoding="UTF-8" standalone="no"?>
<!-- Created with Inkscape (http://www.inkscape.org/) -->

<svg
   xmlns:dc="http://purl.org/dc/elements/1.1/"
   xmlns:cc="http://creativecommons.org/ns#"
   xmlns:rdf="http://www.w3.org/1999/02/22-rdf-syntax-ns#"
   xmlns:svg="http://www.w3.org/2000/svg"
   xmlns="http://www.w3.org/2000/svg"
   xmlns:sodipodi="http://sodipodi.sourceforge.net/DTD/sodipodi-0.dtd"
   xmlns:inkscape="http://www.inkscape.org/namespaces/inkscape"
   width="20"
   height="20"
   viewBox="0 0 5.2916662 5.2916661"
   version="1.1"
   id="svg5176"
   inkscape:version="0.92.3 (2405546, 2018-03-11)"
   sodipodi:docname="sinclinal recumbente.svg">
  <defs
     id="defs5170" />
  <sodipodi:namedview
     id="base"
     pagecolor="#ffffff"
     bordercolor="#666666"
     borderopacity="1.0"
     inkscape:pageopacity="0.0"
     inkscape:pageshadow="2"
     inkscape:zoom="7.9195959"
     inkscape:cx="29.234842"
     inkscape:cy="14.767065"
     inkscape:document-units="mm"
     inkscape:current-layer="layer1"
     showgrid="false"
     units="px"
     inkscape:window-width="1366"
     inkscape:window-height="705"
     inkscape:window-x="-8"
     inkscape:window-y="-8"
     inkscape:window-maximized="1"
     width="2px" />
  <metadata
     id="metadata5173">
    <rdf:RDF>
      <cc:Work
         rdf:about="">
        <dc:format>image/svg+xml</dc:format>
        <dc:type
           rdf:resource="http://purl.org/dc/dcmitype/StillImage" />
        <dc:title></dc:title>
      </cc:Work>
    </rdf:RDF>
  </metadata>
  <g
     inkscape:label="Capa 1"
     inkscape:groupmode="layer"
     id="layer1"
     transform="translate(0,-291.708)">
    <path
       style="fill:#483e37;fill-opacity:1;stroke-width:0.01517245"
       d="m 2.3881116,296.93681 c -0.5103371,-0.0883 -0.9726973,-0.42111 -1.2205159,-0.8785 -0.1000717,-0.1847 -0.16864555,-0.42701 -0.19261544,-0.68059 -0.009025,-0.0954 -0.00875,-0.0963 0.02897,-0.0963 0.020942,0 0.038139,-0.005 0.038214,-0.0118 7.47e-5,-0.006 -0.22928422,-0.50952 -0.50968762,-1.11814 -0.28040341,-0.60863 -0.50727496,-1.10906 -0.50415899,-1.11209 0.0031159,-0.002 0.21271389,0.0874 0.46577316,0.20097 0.25305928,0.11357 0.46642863,0.20647 0.47415413,0.20647 0.008601,0 0.014046,-0.3228 0.014046,-0.83239 V 291.782 H 1.1316308 1.2809707 v 0.8324 c 0,0.45781 0.00302,0.83239 0.00671,0.83239 0.00369,0 0.1992172,-0.0907 0.434497,-0.2015 0.2352797,-0.11074 0.4314211,-0.19774 0.4358696,-0.19315 0.00444,0.005 -0.2045156,0.50365 -0.4643649,1.109 -0.2598491,0.60537 -0.472453,1.10501 -0.472453,1.11034 0,0.005 0.00967,0.0106 0.021486,0.0106 0.014402,0 0.024477,0.0241 0.03056,0.0731 0.04581,0.36962 0.1372481,0.58722 0.343296,0.81693 0.1331286,0.14843 0.254621,0.24062 0.4334942,0.32892 0.2360956,0.11665 0.3577337,0.14392 0.6421616,0.14434 0.2031022,2.9e-4 0.2578313,-0.005 0.3648601,-0.0349 0.2612108,-0.0731 0.4673123,-0.19113 0.6483046,-0.3709 0.2319874,-0.23042 0.3589266,-0.49065 0.3997989,-0.81962 0.015052,-0.12119 0.020734,-0.13795 0.046652,-0.13795 0.017866,0 0.026395,-0.007 0.021614,-0.0193 -0.00435,-0.0106 -0.2366577,-0.51493 -0.5162529,-1.12071 -0.2795954,-0.6058 -0.5064431,-1.10344 -0.5041061,-1.10586 0.00233,-0.002 0.2120909,0.0892 0.4661198,0.20353 0.2540291,0.11428 0.4669112,0.20791 0.4730714,0.20793 0.00616,2e-5 0.011201,-0.37455 0.011201,-0.83236 V 291.7829 H 4.2528322 4.402172 v 0.83241 c 0,0.45781 0.00556,0.83239 0.012354,0.83239 0.0068,0 0.2067237,-0.0925 0.4442863,-0.20541 0.2375624,-0.11286 0.4335811,-0.20142 0.4355973,-0.19653 0.00202,0.005 -0.2109786,0.5083 -0.4733217,1.11873 -0.4694508,1.0923 -0.4763851,1.10993 -0.4388679,1.11489 0.037729,0.005 0.038018,0.006 0.028223,0.1079 -0.015857,0.16482 -0.036995,0.27306 -0.078146,0.40017 -0.2597998,0.80248 -1.0956002,1.29688 -1.9441884,1.15003 z"
       id="path5227"
       inkscape:connector-curvature="0" />
  </g>
</svg>
